# ProBuilder 4.1.0
# https://unity3d.com/unity/features/worldbuilding/probuilder
# 05.11.2019 18:54:05

mtllib ./HexModel.mtl
o HexModel

g Cylinder
v -0.5 -1.015 0
v -0.5 -0.01499999 0
v -0.25 -1.015 0.4330127
v -0.25 -0.01499999 0.4330127
v 0.25 -1.015 0.4330127
v 0.25 -0.01499999 0.4330127
v 0.5 -1.015 -4.371139E-08
v 0.5 -0.01499999 -4.371139E-08
v 0.2499999 -1.015 -0.4330127
v 0.2499999 -0.01499999 -0.4330127
v -0.2499999 -1.015 -0.4330127
v -0.2499999 -0.01499999 -0.4330127
v -0.45 -0.0005756617 1.715807E-07
v -0.225 -0.0005756617 0.3897116
v 0.225 -0.0005756617 0.3897116
v 0.45 -0.0005756617 1.322405E-07
v 0.2249999 -0.0005757809 -0.3897113
v 0 -0.0005756617 1.715807E-07
v -0.2249999 -0.0005757809 -0.3897113

vt 0 0
vt 0 1
vt 0.5000001 0
vt 0.5000001 1
vt 0.25 0
vt 0.25 1
vt 0.75 0
vt 0.75 1
vt -0.5000001 0
vt -0.5000001 1
vt -0.7499999 0
vt -0.7499999 1
vt -0.2500001 0
vt -0.2500001 1
vt -0.05000001 3.267324E-07
vt -0.275 0.3897118
vt -0.725 0.3897117
vt -0.95 2.873922E-07
vt -0.7249999 -0.3897112
vt -0.2750001 -0.3897112
vt -0.2500001 -0.09478071
vt -0.7499999 -0.09478071
vt -0.2750001 -0.04914006
vt -0.7249999 -0.04914006
vt -0.4434334 -0.2428946
vt -0.683638 0.1956277
vt -0.4154148 -0.1990422
vt -0.6315989 0.1956279
vt -0.6836338 -0.1956303
vt -0.4434295 0.2428922
vt -0.6315948 -0.1956301
vt -0.415411 0.1990401
vt -0.75 0.09477574
vt -0.25 0.09477577
vt -0.725 0.04913532
vt -0.275 0.04913535
vt -0.5173875 0.286693
vt -0.2771832 -0.1518294
vt -0.5454061 0.242841
vt -0.3292223 -0.1518292
vt -0.2771822 0.1518289
vt -0.5173866 -0.2866935
vt -0.3292213 0.1518291
vt -0.5454052 -0.2428411

vn -0.8660254 0 0.5
vn 5.960464E-08 0 1
vn 0.8660254 0 0.5
vn 0.8660254 0 -0.5000001
vn 0 0 -1
vn -0.8660254 0 -0.5000001
vn 0 1 -1.529456E-07
vn 0 0.9487464 -0.3160385
vn 0.2736976 0.9487463 -0.1580194
vn 0.2737007 0.9487451 0.1580211
vn 1.883762E-08 0.9487449 0.3160428
vn -0.2737007 0.9487451 0.1580211
vn -0.2736996 0.9487455 -0.1580206

usemtl HexTop
f 19/20/7 18/9/7 17/19/7
f 17/19/7 18/9/7 16/18/7
f 16/18/7 18/9/7 15/17/7
f 15/17/7 18/9/7 14/16/7
f 14/16/7 18/9/7 13/15/7
f 13/15/7 18/9/7 19/20/7
f 4/4/1 2/2/1 1/1/1
f 1/1/1 3/3/1 4/4/1
f 6/8/2 4/6/2 3/5/2
f 3/5/2 5/7/2 6/8/2
f 8/4/3 6/2/3 5/1/3
f 5/1/3 7/3/3 8/4/3
f 10/2/4 8/10/4 7/9/4
f 7/9/4 9/1/4 10/2/4
f 12/14/5 10/12/5 9/11/5
f 9/11/5 11/13/5 12/14/5
f 2/2/6 12/10/6 11/9/6
f 11/9/6 1/1/6 2/2/6

usemtl Gray2
f 19/23/8 17/24/8 10/22/8 12/21/8
f 17/27/9 16/28/9 8/26/9 10/25/9
f 16/31/10 15/32/10 6/30/10 8/29/10
f 15/35/11 14/36/11 4/34/11 6/33/11
f 14/39/12 13/40/12 2/38/12 4/37/12
f 13/43/13 19/44/13 12/42/13 2/41/13

