# ProBuilder 4.1.0
# https://unity3d.com/unity/features/worldbuilding/probuilder
# 15.11.2019 20:44:16

mtllib ./LinkTower.mtl
o LinkTower

g LinkTower
v 2 0 2
v -2 0 2
v 1.599998 1 1.599998
v -1.599998 1 1.599998
v -2 0 -2
v -1.599998 1 -1.599998
v 2 0 -2
v 1.599998 1 -1.599998
v 1.599998 3 1.599998
v -1.599998 3 1.599998
v 1.599998 3 -1.599998
v -1.599998 3 -1.599998
v 0.9599991 4 0.9599991
v -0.9599991 4 0.9599991
v 0.9599991 4 -0.9599991
v -0.9599991 4 -0.9599991
v -0.9599991 9 0.9599991
v 0 9 0.9599991
v 0.9599991 9 0.9599991
v 0.9599991 9 0
v 0.9599991 9 -0.9599991
v -0.9599991 9 -0.9599991
v -0.9599991 9 0
v 0 9 -0.9599991
v 0 13 0
v 2 -2 -2
v -2 -2 -2
v 2 -2 2
v -2 -2 2

vt 2 -0.7427838
vt -2 -0.7427838
vt 1.599998 0.3342498
vt -1.599998 0.3342498
vt 1.599998 1
vt -1.599998 1
vt 1.599998 3
vt -1.599998 3
vt 1.599998 1.66433
vt -1.599998 1.66433
vt 0.9599991 2.851596
vt -0.9599991 2.851596
vt 0.9599991 4
vt -0.9599991 4
vt -0.9599991 9
vt 0 9
vt 0.9599991 9
vt -0.9599991 -0.9599991
vt 0.9599991 -0.9599991
vt 0 0
vt 0.9599991 0
vt 0 -0.9599991
vt 0.9599991 0.9599991
vt 0 0.9599991
vt -0.9599991 0.9599991
vt -0.9599991 0
vt -2 0
vt 2 0
vt -2 -2
vt 2 -2

vn 0 0.3713919 0.9284762
vn -0.9284762 0.3713919 0
vn 0 0.3713919 -0.9284762
vn 0.9284762 0.3713919 0
vn 0 0 1
vn 1 0 0
vn -1 0 0
vn 0 0 -1
vn 0 0.5390533 0.8422716
vn 0.8422716 0.5390533 0
vn -0.8422716 0.5390533 0
vn 0 0.5390533 -0.8422716
vn 0 0.2333727 -0.9723874
vn 0.9723874 0.2333727 0
vn -0.9723874 0.2333727 0
vn 0 0.2333727 0.9723874

usemtl Gray0
f 3/3/1 4/4/1 2/2/1 1/1/1
f 4/3/2 6/4/2 5/2/2 2/1/2
f 6/3/3 8/4/3 7/2/3 5/1/3
f 8/3/4 3/4/4 1/2/4 7/1/4
f 9/7/5 10/8/5 4/6/5 3/5/5
f 11/7/6 9/8/6 3/6/6 8/5/6
f 10/7/7 12/8/7 6/6/7 4/5/7
f 12/7/8 11/8/8 8/6/8 6/5/8
f 23/21/15 17/23/15 25/20/15 22/19/15
f 25/20/13 21/18/13 24/22/13 22/19/13
f 21/18/14 25/20/14 19/25/14 20/26/14
f 19/25/16 25/20/16 17/23/16 18/24/16

usemtl LightGray
f 18/16/5 13/13/5 19/17/5
f 13/13/5 18/16/5 14/14/5
f 18/16/5 17/15/5 14/14/5
f 15/13/6 21/17/6 20/16/6
f 15/13/6 20/16/6 13/14/6
f 19/15/6 13/14/6 20/16/6
f 23/16/7 14/13/7 17/17/7
f 14/13/7 23/16/7 16/14/7
f 23/16/7 22/15/7 16/14/7
f 16/13/8 22/17/8 24/16/8
f 16/13/8 24/16/8 15/14/8
f 21/15/8 15/14/8 24/16/8

usemtl Blue0
f 13/11/9 14/12/9 10/10/9 9/9/9
f 15/11/10 13/12/10 9/10/10 11/9/10
f 14/11/11 16/12/11 12/10/11 10/9/11
f 16/11/12 15/12/12 11/10/12 12/9/12

usemtl Gray2
f 26/29/8 27/30/8 5/28/8 7/27/8
f 28/29/6 26/30/6 7/28/6 1/27/6
f 27/29/7 29/30/7 2/28/7 5/27/7
f 29/29/5 28/30/5 1/28/5 2/27/5

